<svg xmlns="http://www.w3.org/2000/svg" viewBox="0 0 1186.14 994.71"><defs><style>.cls-1{fill:#6294a4;}.cls-2{font-size:35px;font-family:AvenirNextCondensed-Bold, Avenir Next Condensed;font-weight:700;}.cls-15,.cls-17,.cls-2,.cls-21,.cls-8{fill:#fff;}.cls-3{fill:none;stroke:#fff;stroke-miterlimit:10;}.cls-4{letter-spacing:-0.02em;}.cls-5{letter-spacing:-0.02em;}.cls-6{letter-spacing:-0.03em;}.cls-7{letter-spacing:-0.01em;}.cls-15,.cls-8{font-size:22px;}.cls-16,.cls-17,.cls-8{font-family:Avenir-Light, Avenir;}.cls-9{letter-spacing:-0.11em;}.cls-10{letter-spacing:-0.02em;}.cls-11{letter-spacing:-0.11em;}.cls-12{letter-spacing:0em;}.cls-13{letter-spacing:0.02em;}.cls-14{letter-spacing:0em;}.cls-15,.cls-20{font-family:Avenir-Black, Avenir;}.cls-17{font-size:53px;}.cls-18{letter-spacing:-0.02em;}.cls-19{letter-spacing:-0.02em;}.cls-21{font-size:55px;font-family:Phosphate-Inline, Phosphate;}.cls-22{letter-spacing:0.01em;}.cls-23{letter-spacing:-0.07em;}.cls-24{letter-spacing:-0.08em;}.cls-25{letter-spacing:0.03em;}.cls-26{letter-spacing:0em;}.cls-27{letter-spacing:-0.03em;}.cls-28{letter-spacing:-0.05em;}.cls-29{letter-spacing:-0.02em;}.cls-30{letter-spacing:0.01em;}.cls-31{letter-spacing:-0.04em;}</style></defs><title>Asset 4</title><g id="Layer_2" data-name="Layer 2"><g id="Layer_1-2" data-name="Layer 1"><rect class="cls-1" x="1.45" width="1151.89" height="972.71"/><text class="cls-2" transform="translate(795.23 42.54)">BRUNCH</text><rect class="cls-3" x="34.03" y="228.01" width="1088.73" height="301.51"/><text class="cls-2" transform="translate(453.64 269.48)">DINNER &amp; DRINKS</text><text class="cls-2" transform="translate(118.31 605.09)">BREWERIES &amp;<tspan class="cls-4" x="186.34" y="0"> </tspan><tspan x="192.71" y="0">VINE</tspan><tspan class="cls-5" x="258.65" y="0">Y</tspan><tspan x="275.03" y="0">ARDS</tspan></text><rect class="cls-3" x="34.03" y="560.61" width="528.57" height="373.4"/><text class="cls-2" transform="translate(739.41 605.09)"><tspan class="cls-6">O</tspan><tspan x="20.37" y="0">THER</tspan><tspan class="cls-4" x="90.82" y="0"> </tspan><tspan class="cls-7" x="97.19" y="0">AC</tspan><tspan x="133.7" y="0">TIVITIES</tspan></text><rect class="cls-3" x="594.18" y="560.61" width="528.57" height="373.4"/><text class="cls-8" transform="translate(173.06 320.92)">Mas <tspan class="cls-9" x="46.07" y="0">T</tspan><tspan x="56.25" y="0">apas</tspan><tspan class="cls-9" x="20.17" y="30">T</tspan><tspan x="30.36" y="30">avola</tspan><tspan x="-19.17" y="60">The Bebede</tspan><tspan class="cls-10" x="101.08" y="60">r</tspan><tspan x="108.01" y="60">o</tspan><tspan x="-2.65" y="90">The Fitz</tspan><tspan class="cls-10" x="74.37" y="90">r</tspan><tspan x="81.3" y="90">oy</tspan><tspan x="-120.69" y="120">Jack B</tspan><tspan class="cls-10" x="-57.93" y="120">r</tspan><tspan x="-51" y="120">own</tspan><tspan class="cls-11" x="-10.21" y="120">’</tspan><tspan x="-6.93" y="120">s Beer and Bu</tspan><tspan class="cls-10" x="128.44" y="120">r</tspan><tspan x="135.37" y="120">ger Joint</tspan><tspan x="3.87" y="150">The Local</tspan><tspan x="-18.53" y="180">Ci</tspan><tspan class="cls-12" x="2.23" y="180">t</tspan><tspan x="9.58" y="180">izen Bu</tspan><tspan class="cls-10" x="80.51" y="180">r</tspan><tspan x="87.44" y="180">ger</tspan></text><text class="cls-8" transform="translate(504.24 320.92)">Mu<tspan class="cls-12" x="31.79" y="0">d</tspan><tspan x="45.25" y="0">house Co</tspan><tspan class="cls-10" x="138.67" y="0">f</tspan><tspan x="144.78" y="0">fee</tspan><tspan x="-44.65" y="30">Orzo Kitchen and </tspan><tspan class="cls-13" x="131.04" y="30">W</tspan><tspan x="152.34" y="30">ine Bar</tspan><tspan x="-55.39" y="60">Charlo</tspan><tspan class="cls-12" x="9.42" y="60">t</tspan><tspan x="16.77" y="60">tesvi</tspan><tspan class="cls-14" x="61.16" y="60">l</tspan><tspan x="66.46" y="60">le Draft </tspan><tspan class="cls-11" x="144.3" y="60">T</tspan><tspan x="154.48" y="60">ap</tspan><tspan class="cls-10" x="179.34" y="60">r</tspan><tspan x="186.27" y="60">oom</tspan><tspan x="-25.25" y="90">Commonwea</tspan><tspan class="cls-12" x="105.23" y="90">lt</tspan><tspan x="117.88" y="90">h Skybar</tspan><tspan x="8.61" y="120">The Whiskey Jar</tspan></text><text x="1.45"></text><text class="cls-15" transform="translate(705.19 85.04)">On The Go!<tspan class="cls-16"><tspan x="-2.95" y="30">Brazo</tspan><tspan class="cls-9" x="52.1" y="30">’</tspan><tspan x="55.37" y="30">s </tspan><tspan class="cls-11" x="70.47" y="30">T</tspan><tspan x="80.65" y="30">acos</tspan><tspan x="-7.63" y="60">Bodo</tspan><tspan class="cls-9" x="45.8" y="60">’</tspan><tspan x="49.08" y="60">s Bagels</tspan><tspan x="7.3" y="90">Ace Biscuit</tspan></tspan></text><text class="cls-15" transform="translate(929.03 85.04)">Sit and Enjoy<tspan class="cls-16"><tspan x="5.87" y="30">Oakhurst Inn</tspan><tspan x="41.34" y="60">Bizou</tspan><tspan x="23.8" y="90">Beer Run</tspan><tspan x="-9.44" y="120">Commonwea</tspan><tspan class="cls-12" x="121.04" y="120">lt</tspan><tspan x="133.69" y="120">h</tspan></tspan></text><line class="cls-3" x1="589.15" y1="31.01" x2="766.46" y2="31.01"/><line class="cls-3" x1="943.82" y1="31.01" x2="1124.95" y2="31.01"/><text class="cls-17" transform="translate(34.03 84.59)">He<tspan class="cls-18" x="67.73" y="0">r</tspan><tspan x="84.43" y="0">e a</tspan><tspan class="cls-19" x="155.18" y="0">r</tspan><tspan x="171.88" y="0">e some </tspan><tspan class="cls-20" x="357.59" y="0">local</tspan><tspan x="471.48" y="0"> </tspan><tspan x="0" y="55">favorite spots to </tspan></text><text class="cls-21" transform="translate(33.15 199.96)"><tspan class="cls-22">E</tspan><tspan class="cls-23" x="25.85" y="0">A</tspan><tspan class="cls-24" x="56.15" y="0">T</tspan><tspan x="77.38" y="0">, DRIN</tspan><tspan class="cls-25" x="221.81" y="0">K</tspan><tspan x="258.11" y="0">, AND </tspan><tspan class="cls-26" x="399.62" y="0">E</tspan><tspan x="425.2" y="0">XP</tspan><tspan class="cls-27" x="488.01" y="0">L</tspan><tspan x="510.61" y="0">ORE</tspan></text><text class="cls-15" transform="translate(825.54 320.92)">Near U<tspan class="cls-28" x="74.14" y="0">V</tspan><tspan x="88.42" y="0">A G</tspan><tspan class="cls-10" x="128.35" y="0">r</tspan><tspan x="136.91" y="0">ounds:</tspan><tspan class="cls-16"><tspan x="-43.69" y="30">Michae</tspan><tspan class="cls-12" x="27.61" y="30">l</tspan><tspan class="cls-9" x="32.91" y="30">’</tspan><tspan x="36.19" y="30">s Bist</tspan><tspan class="cls-10" x="87.12" y="30">r</tspan><tspan x="94.05" y="30">o and </tspan><tspan class="cls-11" x="155.65" y="30">T</tspan><tspan x="165.83" y="30">aphouse</tspan><tspan x="12.14" y="60">Me</tspan><tspan class="cls-12" x="43.93" y="60">l</tspan><tspan x="49.24" y="60">low Mush</tspan><tspan class="cls-10" x="142.19" y="60">r</tspan><tspan x="149.12" y="60">oom</tspan><tspan x="29.3" y="90">Boylan Heights</tspan><tspan x="9.72" y="120">Fry</tspan><tspan class="cls-9" x="39.47" y="120">’</tspan><tspan x="42.75" y="120">s Spring Sta</tspan><tspan class="cls-12" x="158.49" y="120">t</tspan><tspan x="165.84" y="120">ion</tspan></tspan></text><line class="cls-3" x1="754.75" y1="294.28" x2="754.75" y2="488.77"/><text class="cls-8" transform="translate(184.99 652.26)">Blue Mountain B<tspan class="cls-10" x="162.25" y="0">r</tspan><tspan x="169.18" y="0">ewery</tspan><tspan x="13.02" y="30">P</tspan><tspan class="cls-10" x="25.65" y="30">r</tspan><tspan x="32.58" y="30">o Re Nata B</tspan><tspan class="cls-29" x="149.23" y="30">r</tspan><tspan x="156.16" y="30">ewery</tspan><tspan x="-61.96" y="60">Devi</tspan><tspan class="cls-12" x="-17.96" y="60">l</tspan><tspan class="cls-9" x="-12.66" y="60">’</tspan><tspan x="-9.38" y="60">s Backbone B</tspan><tspan class="cls-10" x="122.7" y="60">r</tspan><tspan x="129.63" y="60">ewing Company</tspan><tspan x="0.61" y="90">Th</tspan><tspan class="cls-10" x="25.47" y="90">r</tspan><tspan x="32.4" y="90">ee Notch’d B</tspan><tspan class="cls-29" x="161.65" y="90">r</tspan><tspan x="168.58" y="90">ewery</tspan><tspan class="cls-28" x="35.62" y="150">V</tspan><tspan x="47.45" y="150">eritas </tspan><tspan class="cls-30" x="106.13" y="150">V</tspan><tspan x="119.31" y="150">ineya</tspan><tspan class="cls-10" x="170.66" y="150">r</tspan><tspan x="177.59" y="150">d</tspan><tspan x="34.19" y="180">Po</tspan><tspan class="cls-12" x="59.88" y="180">l</tspan><tspan x="65.18" y="180">lak </tspan><tspan class="cls-30" x="98.18" y="180">V</tspan><tspan x="111.36" y="180">ineya</tspan><tspan class="cls-10" x="162.71" y="180">r</tspan><tspan x="169.64" y="180">ds</tspan><tspan x="23.17" y="210">Je</tspan><tspan class="cls-10" x="46" y="210">f</tspan><tspan x="52.12" y="210">ferson </tspan><tspan class="cls-30" x="118.58" y="210">V</tspan><tspan x="131.76" y="210">ineya</tspan><tspan class="cls-10" x="183.11" y="210">r</tspan><tspan x="190.04" y="210">d </tspan><tspan x="0.17" y="240">Barboursvi</tspan><tspan class="cls-12" x="103.67" y="240">l</tspan><tspan x="108.98" y="240">le </tspan><tspan class="cls-30" x="132.21" y="240">V</tspan><tspan x="145.38" y="240">ineya</tspan><tspan class="cls-10" x="196.73" y="240">r</tspan><tspan x="203.66" y="240">ds</tspan></text><line class="cls-3" x1="113.47" y1="764.49" x2="480.06" y2="764.49"/><text class="cls-8" transform="translate(688.73 652.26)">Charlo<tspan class="cls-12" x="64.81" y="0">t</tspan><tspan x="72.16" y="0">tesvi</tspan><tspan class="cls-14" x="116.56" y="0">l</tspan><tspan x="121.86" y="0">le City Farmer</tspan><tspan class="cls-11" x="258.37" y="0">’</tspan><tspan x="261.65" y="0">s Market</tspan><tspan x="23.06" y="30">(Satu</tspan><tspan class="cls-10" x="71.98" y="30">r</tspan><tspan x="78.92" y="30">day</tspan><tspan class="cls-11" x="113.96" y="30">’</tspan><tspan x="117.24" y="30">s 8:00 am - 12:00 pm)</tspan><tspan x="31.32" y="90">Thomas Je</tspan><tspan class="cls-10" x="137.33" y="90">f</tspan><tspan x="143.45" y="90">ferson Mon</tspan><tspan class="cls-12" x="254.77" y="90">t</tspan><tspan x="262.12" y="90">ice</tspan><tspan class="cls-12" x="290.21" y="90">l</tspan><tspan x="295.51" y="90">lo</tspan><tspan class="cls-31" x="57.44" y="120">W</tspan><tspan x="77.4" y="120">a</tspan><tspan class="cls-12" x="88.81" y="120">l</tspan><tspan x="94.11" y="120">k a</tspan><tspan class="cls-10" x="121.83" y="120">r</tspan><tspan x="128.76" y="120">ound IX Art Park</tspan><tspan x="29.54" y="150">Drive </tspan><tspan class="cls-12" x="86.58" y="150">t</tspan><tspan x="93.93" y="150">he Blue Ridge Parkway</tspan><tspan x="49.7" y="210">Carter Mountain O</tspan><tspan class="cls-10" x="233.95" y="210">r</tspan><tspan x="240.88" y="210">cha</tspan><tspan class="cls-29" x="275.11" y="210">r</tspan><tspan x="282.04" y="210">d </tspan><tspan x="8.24" y="240">(13 mins f</tspan><tspan class="cls-10" x="100.42" y="240">r</tspan><tspan x="107.35" y="240">om </tspan><tspan class="cls-12" x="144.88" y="240">t</tspan><tspan x="152.23" y="240">he downtown ma</tspan><tspan class="cls-12" x="320.64" y="240">l</tspan><tspan x="325.94" y="240">l)</tspan></text></g></g></svg>