<svg xmlns="http://www.w3.org/2000/svg" viewBox="0 0 1280 563.79"><defs><style>.cls-1{fill:#eaeadc;}.cls-2{font-size:33.6px;}.cls-2,.cls-34,.cls-35,.cls-42,.cls-46{fill:#05334f;}.cls-2,.cls-35,.cls-42{font-family:Avenir-Light, Avenir;}.cls-3{letter-spacing:-0.02em;}.cls-4{letter-spacing:0em;}.cls-5{fill:#518ca9;}.cls-6{fill:#6294a4;}.cls-7{fill:#85aabc;}.cls-8{fill:#759c3f;}.cls-9{fill:#ebebec;}.cls-10,.cls-16,.cls-17,.cls-20,.cls-21,.cls-22,.cls-28,.cls-33,.cls-45,.cls-54,.cls-59{fill:none;}.cls-10,.cls-22{stroke:#eaeadc;}.cls-10,.cls-16,.cls-17,.cls-19,.cls-20,.cls-21,.cls-22,.cls-28,.cls-33,.cls-45,.cls-48,.cls-49,.cls-52,.cls-53,.cls-54,.cls-59{stroke-miterlimit:10;}.cls-10,.cls-52{stroke-width:3px;}.cls-11{fill:#bc7957;}.cls-12{fill:#f7f7f8;}.cls-13{fill:#e0dee0;}.cls-14{fill:#eae8ea;}.cls-15{fill:#5a808b;}.cls-16,.cls-21{stroke:#5a808b;}.cls-17,.cls-20{stroke:#608894;}.cls-18,.cls-19{fill:#7887a1;}.cls-19,.cls-45,.cls-49,.cls-52,.cls-53,.cls-54{stroke:#fff;}.cls-20,.cls-21,.cls-45{stroke-width:2px;}.cls-22{stroke-width:4px;}.cls-23{fill:#7288a1;}.cls-24{fill:#4e6238;}.cls-25{fill:#748241;}.cls-26{fill:#e6e6e8;}.cls-27{fill:#486970;}.cls-28{stroke:#486970;}.cls-29,.cls-48,.cls-49,.cls-60,.cls-62{fill:#fff;}.cls-30{fill:#e1e0e2;}.cls-31{fill:#d4d4d6;}.cls-32{fill:#c3bfb4;}.cls-33{stroke:#e7a2c8;stroke-width:6px;}.cls-35{font-size:26.4px;}.cls-36{letter-spacing:-0.02em;}.cls-37{letter-spacing:0em;}.cls-38{font-size:21.6px;fill:#da6ba9;}.cls-38,.cls-39,.cls-46{font-family:Avenir-Black, Avenir;}.cls-39{font-size:16.8px;fill:#77102e;}.cls-40{letter-spacing:0.01em;}.cls-41{letter-spacing:-0.02em;}.cls-43{letter-spacing:-0.02em;}.cls-44{fill:#e7a2c8;opacity:0.8;}.cls-46{font-size:15.6px;}.cls-47{letter-spacing:-0.09em;}.cls-48{stroke:#d3d5d8;stroke-width:9px;}.cls-50{fill:#bbc3c7;}.cls-51{fill:#55302f;}.cls-52,.cls-53{fill:#697a80;}.cls-55{fill:#dee1dd;}.cls-56{fill:#250f0c;}.cls-57{fill:#1a1214;}.cls-58{fill:#bbb6b6;}.cls-59{stroke:#dee1dd;}.cls-60{font-size:11.2px;letter-spacing:-0.02em;}.cls-60,.cls-62{font-family:MyriadPro-Regular, Myriad Pro;}.cls-61{fill:#9b6743;}.cls-62{font-size:8.62px;letter-spacing:-0.02em;}.cls-63{fill:#884b27;}.cls-64{fill:#546684;}</style></defs><title>Asset 6</title><g id="Layer_2" data-name="Layer 2"><g id="Layer_1-2" data-name="Layer 1"><rect class="cls-1" width="1280" height="508.58"/><text class="cls-2" transform="translate(457.8 52.27)">Our <tspan class="cls-3" x="66.63" y="0">W</tspan><tspan x="97.74" y="0">ed</tspan><tspan class="cls-4" x="136.95" y="0">d</tspan><tspan x="157.51" y="0">ing </tspan><tspan class="cls-3" x="213.52" y="0">W</tspan><tspan x="244.64" y="0">eeken</tspan><tspan class="cls-4" x="335.53" y="0">d</tspan><tspan x="356.09" y="0">!</tspan></text><path class="cls-5" d="M251.41,114.94s49.46-19.93,81.2,0c0,0,82.67-17,111.46-4.43l106.07,83.9h-176Z"/><path class="cls-6" d="M41.66,201l60.8-1.08L243.7,116.21s-50.85-7-59.62-9.1c-15-3.64-35.44-24.16-56.83-24.16-8.61,0-55.47,10.21-62.79,24.14C47.12,140,41.66,201,41.66,201Z"/><path class="cls-7" d="M144.89,142.13c29.45,1,77.07-41.24,106.51-40.19,40.24,1.44,161.68,61.31,161.68,61.31l36.7,31.17L64.65,200.69S131.49,141.69,144.89,142.13Z"/><polygon class="cls-8" points="109.84 199.56 161.68 285.9 534.98 275.51 422.44 194.12 109.84 199.56"/><polygon class="cls-9" points="196.95 205.93 179.24 216.68 179.24 234.2 198.31 236.18 196.95 205.93"/><line class="cls-10" x1="179.23" y1="216.65" x2="200.11" y2="204.55"/><polygon class="cls-11" points="179.24 234.2 147.44 240.62 302.9 255.74 451.66 244.55 435.33 239.59 301.31 244.43 179.24 234.2"/><polygon class="cls-12" points="196.95 239.08 256.06 241.61 256.06 183.88 224.66 155.51 196.95 200.08 196.95 239.08"/><polygon class="cls-13" points="256.06 183.88 403.39 196.82 403.39 239.35 256.06 241.61 256.06 183.88"/><polygon class="cls-12" points="264.26 195.28 264.26 241.49 306 245.61 306 209.02 264.26 195.28"/><polygon class="cls-14" points="306 209.19 435.33 215.89 435.33 239.59 306 245.61 306 209.19"/><polygon class="cls-15" points="264.26 194.76 306 208.67 435.33 215.37 401.84 205.07 264.26 194.76"/><polygon class="cls-15" points="224.12 155.56 256.06 184.41 403.39 196.82 368.35 167.45 224.12 155.56"/><line class="cls-16" x1="196.95" y1="200.08" x2="224.61" y2="155.51"/><polyline class="cls-10" points="262.97 195.28 305.02 209.55 435.33 215.89"/><polygon class="cls-17" points="209.75 215.89 209.75 239.59 215.86 239.59 217.01 215.89 209.75 215.89"/><polygon class="cls-18" points="217.01 215.89 215.86 240.11 231.82 240.62 231.82 214.86 217.01 215.89"/><polygon class="cls-19" points="265.57 187.07 265.57 193.73 286.42 195.28 285.92 189.02 265.57 187.07"/><polygon class="cls-19" points="290.02 189.14 290.02 195.79 310.87 197.34 310.37 191.08 290.02 189.14"/><polygon class="cls-19" points="313.12 190.66 313.12 197.32 333.96 198.86 333.47 192.6 313.12 190.66"/><polygon class="cls-19" points="336.31 192.72 336.31 199.38 357.15 200.92 356.65 194.67 336.31 192.72"/><polygon class="cls-19" points="359.33 194.76 359.33 201.42 380.17 202.96 379.68 196.71 359.33 194.76"/><polygon class="cls-19" points="381.49 196.31 381.49 202.96 402.33 204.51 401.83 198.25 381.49 196.31"/><polyline class="cls-16" points="209.86 213.96 216.91 226.84 209.86 239.72"/><polyline class="cls-16" points="216.91 239.59 209.86 226.71 216.91 213.83"/><line class="cls-16" x1="209.86" y1="226.71" x2="216.91" y2="226.84"/><polygon class="cls-17" points="231.82 214.86 231.82 240.62 238.46 240.62 239.72 214.86 231.82 214.86"/><polyline class="cls-16" points="231.82 214.86 238.87 227.74 231.82 240.62"/><polyline class="cls-16" points="238.87 240.49 231.82 227.61 238.87 214.73"/><line class="cls-16" x1="232.01" y1="227.22" x2="239.06" y2="227.35"/><polygon class="cls-20" points="334.47 212.48 333.45 244.33 343.52 243.86 343.66 212.48 334.47 212.48"/><polyline class="cls-21" points="334.47 212.48 342.67 227.47 333.45 244.33"/><polyline class="cls-21" points="343.52 243.86 334.47 227.32 342.67 212.33"/><line class="cls-21" x1="334.69" y1="226.87" x2="342.9" y2="227.02"/><polygon class="cls-20" points="368.65 213.76 368.65 243.02 376.19 243.02 377.61 213.76 368.65 213.76"/><polyline class="cls-21" points="368.65 213.76 376.65 228.39 368.65 243.02"/><polyline class="cls-21" points="376.65 242.87 368.65 228.24 376.65 213.61"/><line class="cls-21" x1="368.87" y1="227.8" x2="376.87" y2="227.95"/><polygon class="cls-20" points="396.13 215.46 396.13 241.27 402.78 241.27 404.04 215.46 396.13 215.46"/><polyline class="cls-21" points="396.13 215.46 403.19 228.36 396.13 241.27"/><polyline class="cls-21" points="403.19 241.14 396.13 228.23 403.19 215.33"/><line class="cls-21" x1="396.32" y1="227.85" x2="403.38" y2="227.98"/><polygon class="cls-20" points="423.39 216.38 423.39 240.25 429.33 240.25 430.45 216.38 423.39 216.38"/><polyline class="cls-21" points="423.39 216.38 429.69 228.32 423.39 240.25"/><polyline class="cls-21" points="429.69 240.13 423.39 228.2 429.69 216.26"/><line class="cls-21" x1="423.56" y1="227.84" x2="429.87" y2="227.96"/><polygon class="cls-16" points="218.95 172.5 217.72 195.28 233.75 194.78 233.75 171.57 218.95 172.5"/><polyline class="cls-16" points="218.95 172.5 225.77 182.68 217.79 193.85"/><polyline class="cls-16" points="225.26 194.29 218.37 183.18 225.77 173.12 225.26 194.29 233.34 182.96 225.86 172.07"/><polyline class="cls-16" points="233.24 171.57 225.77 182.68 233.75 194.78"/><line class="cls-16" x1="218.37" y1="183.18" x2="233.34" y2="182.96"/><polygon class="cls-19" points="311.15 212.8 311.57 234.09 330.58 234.09 330.58 213.83 311.15 212.8"/><polygon class="cls-19" points="345.4 213.83 345.83 234.09 364.84 234.09 364.84 214.81 345.4 213.83"/><polygon class="cls-19" points="379.66 215.76 379.97 234.09 393.94 234.09 393.94 216.65 379.66 215.76"/><polygon class="cls-19" points="406.25 217.54 406.56 233.13 420.53 233.13 420.53 218.29 406.25 217.54"/><line class="cls-22" x1="268.9" y1="196.82" x2="268.9" y2="242.3"/><line class="cls-22" x1="275.43" y1="198.95" x2="275.43" y2="242.83"/><line class="cls-22" x1="282.64" y1="201.5" x2="282.64" y2="243.35"/><line class="cls-22" x1="288.99" y1="204.04" x2="288.99" y2="243.35"/><line class="cls-22" x1="294.4" y1="206.36" x2="294.4" y2="244.03"/><line class="cls-22" x1="305.48" y1="209.02" x2="306" y2="245.61"/><line class="cls-22" x1="299.93" y1="208.31" x2="299.93" y2="244.33"/><line class="cls-22" x1="264.14" y1="195.79" x2="264.38" y2="241.78"/><rect class="cls-23" x="199.33" y="218.94" width="8.28" height="13.18"/><polygon class="cls-23" points="241.58 218.42 241.58 232.59 252.14 233.11 252.14 218.42 241.58 218.42"/><path class="cls-24" d="M257.73,241.65c-2.15-1.9-1.38-11.39-1.38-11.39L266.29,211s5.39,16.39,5.06,22c-.13,2.28-3,8.62-3,8.62S259.71,243.4,257.73,241.65Z"/><path class="cls-24" d="M282.35,245c-2.46-1.47-3.46-10.94-3.46-10.94l6.21-20.77s8.32,15.12,9,20.72c.29,2.27-1.41,9-1.41,9S284.62,246.31,282.35,245Z"/><path class="cls-8" d="M270.85,235.37c-2.09.15-5.28,6.53-5.28,6.53l5.28,3.21,5.28-4.87S272.64,235.24,270.85,235.37Z"/><path class="cls-8" d="M278.43,236.4c-2.09.15-5.28,6.53-5.28,6.53l5.28,3.21,5.28-4.87S280.22,236.27,278.43,236.4Z"/><path class="cls-8" d="M199.33,232.32c-2.09.15-5.28,6.53-5.28,6.53l5.28,3.21,5.28-4.87S201.12,232.19,199.33,232.32Z"/><path class="cls-8" d="M243,234.42c-2.09.15-5.28,6.53-5.28,6.53l5.28,3.21,5.28-4.87S244.78,234.29,243,234.42Z"/><path class="cls-25" d="M252.18,235.65c-2-.54-7.13,4.44-7.13,4.44l3.94,4.76,6.59-2.87S253.91,236.12,252.18,235.65Z"/><path class="cls-25" d="M207.94,233.88c-2-.54-7.13,4.44-7.13,4.44l3.94,4.76,6.59-2.87S209.68,234.34,207.94,233.88Z"/><polygon class="cls-12" points="293.74 151.78 293.74 162.6 306.11 162.34 306.78 148.43 293.74 151.78"/><polygon class="cls-26" points="293.74 162.6 305.48 168.58 305.61 161.35 293.74 162.6"/><polygon class="cls-14" points="306.18 148.43 317.66 150.74 317.77 162.68 305.61 163.39 306.18 148.43"/><polygon class="cls-13" points="305.61 161.35 317.77 162.68 318.06 171.53 305.44 168.58 305.61 161.35"/><polygon class="cls-15" points="293.74 151.78 307.08 145.72 306.31 149.58 293.74 151.78"/><polygon class="cls-27" points="307.08 145.72 306.31 149.58 317.66 150.74 307.08 145.72"/><line class="cls-28" x1="307.3" y1="141.69" x2="307.3" y2="147.27"/><polygon class="cls-19" points="294.25 152.51 294.25 161.35 304.97 160.15 305.44 150.74 294.25 152.51"/><polygon class="cls-19" points="307.36 150.74 306.78 160.24 316.73 161.35 316.73 151.78 307.36 150.74"/><polygon class="cls-29" points="356.67 166.85 356.67 162.04 368.48 159.98 368.48 170.29 356.67 166.85"/><polygon class="cls-30" points="368.48 159.98 372.08 162.04 372.72 171.12 368.48 170.29 368.48 159.98"/><path class="cls-24" d="M185.18,240.13c-2.15-1.9-1.38-11.39-1.38-11.39l9.94-19.27s5.39,16.39,5.06,22c-.13,2.28-3,8.62-3,8.62S187.16,241.88,185.18,240.13Z"/><polygon class="cls-15" points="213.38 209.76 208.23 215.43 234.51 212.59 239.15 206.67 213.38 209.76"/><polygon class="cls-31" points="208.4 215.33 208.4 218.08 234.51 215.33 234.68 212.5 208.4 215.33"/><polygon class="cls-32" points="234.68 212.41 239.32 206.48 240 215.24 234.51 215.24 234.68 212.41"/><path class="cls-33" d="M224.61,277s101.45,23.93,207.27,33.6c52.88,4.83,177.1,37.3,208.94,31.9,34.36-5.83,74.25-1.16,118.15,11.38,0,0,25.79,6.45,53.27,61.86"/><circle class="cls-34" cx="233.02" cy="277.03" r="10.8"/><text class="cls-35" transform="translate(198.37 317.27)">C<tspan class="cls-36" x="18.58" y="0">r</tspan><tspan x="26.9" y="0">ozet</tspan></text><text class="cls-35" transform="translate(691.26 463.75)">Charlo<tspan class="cls-37" x="77.77" y="0">t</tspan><tspan x="86.59" y="0">tesvi</tspan><tspan class="cls-37" x="139.87" y="0">l</tspan><tspan x="146.23" y="0">le</tspan></text><circle class="cls-34" cx="814.25" cy="417.51" r="10.8"/><text class="cls-38" transform="translate(546.29 313.59) rotate(8)">25 mins</text><text class="cls-39" transform="translate(138.23 347.22)">September 15 2018 | 6PM<tspan class="cls-34"><tspan x="15.23" y="20.16">King Family </tspan><tspan class="cls-40" x="113.58" y="20.16">V</tspan><tspan x="125.57" y="20.16">ineya</tspan><tspan class="cls-41" x="167.59" y="20.16">r</tspan><tspan x="174.12" y="20.16">ds</tspan></tspan><tspan class="cls-42"><tspan x="16.99" y="40.32">Ce</tspan><tspan class="cls-43" x="38.16" y="40.32">r</tspan><tspan x="43.45" y="40.32">emony &amp; Recep</tspan><tspan class="cls-4" x="161.76" y="40.32">t</tspan><tspan x="167.37" y="40.32">ion</tspan></tspan></text><text class="cls-39" transform="translate(756.82 187.39)">Hotel Blocks and <tspan class="cls-43" x="-18.37" y="20.16">W</tspan><tspan x="-1.87" y="20.16">edding Shuttles At:</tspan><tspan class="cls-34"><tspan x="-14.31" y="40.32">Omni Charlottesville</tspan><tspan x="-44.48" y="60.48">Hampton Inn Charlottesville</tspan><tspan x="-73.67" y="80.64">University of </tspan><tspan class="cls-40" x="33.34" y="80.64">V</tspan><tspan x="45.34" y="80.64">i</tspan><tspan class="cls-41" x="49.7" y="80.64">r</tspan><tspan x="56.24" y="80.64">ginia Inn at Da</tspan><tspan class="cls-43" x="171.03" y="80.64">r</tspan><tspan x="177.57" y="80.64">den</tspan></tspan></text><circle class="cls-44" cx="1135.27" cy="109.96" r="85.04" transform="translate(834.09 1210.06) rotate(-80.22)"/><circle class="cls-45" cx="1135.27" cy="109.96" r="68.04" transform="translate(834.09 1210.06) rotate(-80.22)"/><text class="cls-46" transform="translate(1095.56 79.19) rotate(9.78)">Please Book <tspan class="cls-47" x="0.89" y="18.72">Y</tspan><tspan x="9.56" y="18.72">our Rooms </tspan><tspan x="14.74" y="37.44">As Soon </tspan><tspan x="2.87" y="56.16">As Possible</tspan></text><polygon class="cls-8" points="927.52 389.04 843.72 436.56 1256.63 461.05 1235.69 385.12 927.52 389.04"/><polygon class="cls-48" points="997.22 298.35 1073.04 269.91 1146.7 298.35 997.22 298.35"/><path class="cls-49" d="M1054.73,421.76h6.78s-6.78-37.48,10.45-37.48c0,0,18.52-.86,11.85,37.48H1091L1089.79,378l-34.63.22-.43,40.71Z"/><path class="cls-49" d="M1006.91,422.41h6.78s-6.78-37.48,10.45-37.48c0,0,18.52-.86,11.85,37.48h7.22L1042,378.69l-34.63.22-.43,40.71Z"/><path class="cls-49" d="M1102.11,421.76h7.21s-7.21-37.48,11.11-37.48c0,0,19.69-.86,12.59,37.48h7.68L1139.39,378l-36.82.22-.46,40.71Z"/><rect class="cls-50" x="994.42" y="378.25" width="12.49" height="44.16"/><rect class="cls-50" x="1042.23" y="378.25" width="12.49" height="44.16"/><rect class="cls-50" x="1090.05" y="378.04" width="12.49" height="44.16"/><polygon class="cls-51" points="1009.28 334.1 1009.28 316.72 1019.26 318.86 1019.26 315 1049.64 315 1049.38 334.1 1009.28 334.1"/><rect class="cls-52" x="1025.76" y="324.33" width="10.05" height="9.33"/><polyline class="cls-53" points="1029.45 324.33 1029.45 328.54 1029.45 333.67"/><polyline class="cls-53" points="1032.22 324.33 1032.22 327.85 1032.22 333.67"/><line class="cls-54" x1="1025.76" y1="327.42" x2="1035.81" y2="327.42"/><line class="cls-54" x1="1025.76" y1="330.69" x2="1035.81" y2="330.69"/><polygon class="cls-55" points="1008.85 322.01 1016.6 322.92 1019.51 320.63 1049.04 320.63 1049.13 316.1 1046.86 311.27 1010.89 311.27 1009.14 315.66 1008.85 322.01"/><path class="cls-51" d="M1054.29,334V320.43l-1-.79a.38.38,0,0,1,.24-.68l10,.12h28l-.24,14.93Z"/><polygon class="cls-51" points="1135.86 334.1 1135.86 320.51 1126.67 322.19 1126.67 319.17 1098.68 319.17 1098.92 334.1 1135.86 334.1"/><polygon class="cls-55" points="1136.86 320.27 1126.67 322.19 1114.45 319.03 1052.4 319.03 1052.21 314.96 1056.99 310.63 1132.56 310.62 1136.26 314.56 1136.86 320.27"/><rect class="cls-52" x="1067.42" y="324.33" width="10.05" height="9.33"/><polyline class="cls-53" points="1071.12 324.33 1071.12 328.54 1071.12 333.67"/><polyline class="cls-53" points="1073.88 324.33 1073.88 327.85 1073.88 333.67"/><line class="cls-54" x1="1067.42" y1="327.42" x2="1077.47" y2="327.42"/><line class="cls-54" x1="1067.42" y1="330.69" x2="1077.47" y2="330.69"/><rect class="cls-52" x="1108.29" y="323.87" width="10.05" height="9.33"/><polyline class="cls-53" points="1111.98 323.87 1111.98 328.07 1111.98 333.2"/><polyline class="cls-53" points="1114.75 323.87 1114.75 327.38 1114.75 333.2"/><line class="cls-54" x1="1108.29" y1="326.95" x2="1118.34" y2="326.95"/><line class="cls-54" x1="1108.29" y1="330.22" x2="1118.34" y2="330.22"/><path class="cls-56" d="M1013.7,422.41s-6.35-37,10.45-37.48c0,0,18.52.22,11.85,37.48Z"/><path class="cls-56" d="M1061.45,421.76s-6.35-37,10.45-37.48c0,0,18.52.22,11.85,37.48Z"/><path class="cls-56" d="M1109.28,421.76s-6.76-37,11.12-37.48c0,0,19.72.22,12.61,37.48Z"/><polygon class="cls-51" points="1097.52 369.07 1098.48 352.96 1106.76 352.96 1106.76 352.96 1137.84 352.96 1137.57 369.07 1097.52 369.07"/><rect class="cls-57" x="1056.94" y="358.22" width="6.84" height="10.34"/><rect class="cls-57" x="1080.2" y="358.55" width="6.84" height="10.34"/><rect class="cls-57" x="1106.42" y="358.4" width="4.42" height="10.34"/><rect class="cls-57" x="1121.38" y="358.73" width="4.31" height="10.34"/><rect class="cls-52" x="1111.27" y="359.39" width="10.05" height="9.33"/><polyline class="cls-53" points="1114.96 359.39 1114.96 363.59 1114.96 368.72"/><polyline class="cls-53" points="1117.73 359.39 1117.73 362.91 1117.73 368.72"/><line class="cls-54" x1="1111.27" y1="362.48" x2="1121.32" y2="362.48"/><line class="cls-54" x1="1111.27" y1="365.74" x2="1121.32" y2="365.74"/><polygon class="cls-29" points="1109.11 355.33 1110.74 358.89 1121.92 358.73 1123.29 355.33 1109.11 355.33"/><rect class="cls-57" x="1106.42" y="358.4" width="4.42" height="10.34"/><rect class="cls-57" x="1121.38" y="358.73" width="4.31" height="10.34"/><rect class="cls-52" x="1111.27" y="359.39" width="10.05" height="9.33"/><polyline class="cls-53" points="1114.96 359.39 1114.96 363.59 1114.96 368.72"/><polyline class="cls-53" points="1117.73 359.39 1117.73 362.91 1117.73 368.72"/><line class="cls-54" x1="1111.27" y1="362.48" x2="1121.32" y2="362.48"/><line class="cls-54" x1="1111.27" y1="365.74" x2="1121.32" y2="365.74"/><polygon class="cls-29" points="1109.11 355.33 1110.74 358.89 1121.92 358.73 1123.29 355.33 1109.11 355.33"/><polygon class="cls-58" points="1006.4 348.96 1008.26 353.7 1135.67 353.7 1138.56 348.96 1006.4 348.96"/><rect class="cls-50" x="1006.49" y="342.47" width="129.65" height="7.97"/><polygon class="cls-51" points="1049.08 368.56 1050.13 353.63 1059.17 353.63 1059.17 353.63 1093.1 353.63 1092.81 368.56 1049.08 368.56"/><rect class="cls-57" x="1062.62" y="357.9" width="4.42" height="10.34"/><rect class="cls-57" x="1077.58" y="358.22" width="4.31" height="10.34"/><rect class="cls-52" x="1067.46" y="358.89" width="10.05" height="9.33"/><polyline class="cls-53" points="1071.16 358.89 1071.16 363.09 1071.16 368.22"/><polyline class="cls-53" points="1073.92 358.89 1073.92 362.4 1073.92 368.22"/><line class="cls-54" x1="1067.46" y1="361.97" x2="1077.51" y2="361.97"/><line class="cls-54" x1="1067.46" y1="365.24" x2="1077.51" y2="365.24"/><polygon class="cls-29" points="1065.31 354.83 1066.94 358.38 1078.12 358.22 1079.49 354.83 1065.31 354.83"/><polygon class="cls-51" points="1008.56 368.56 1009.51 353.63 1017.74 353.63 1017.74 353.63 1048.58 353.63 1048.31 368.56 1008.56 368.56"/><rect class="cls-57" x="1017.46" y="357.9" width="4.42" height="10.34"/><rect class="cls-57" x="1032.42" y="358.22" width="4.31" height="10.34"/><rect class="cls-52" x="1022.31" y="358.89" width="10.05" height="9.33"/><polyline class="cls-53" points="1026.01 358.89 1026.01 363.09 1026.01 368.22"/><polyline class="cls-53" points="1028.77 358.89 1028.77 362.4 1028.77 368.22"/><line class="cls-54" x1="1022.31" y1="361.97" x2="1032.36" y2="361.97"/><line class="cls-54" x1="1022.31" y1="365.24" x2="1032.36" y2="365.24"/><polygon class="cls-29" points="1020.16 354.83 1021.78 358.38 1032.97 358.22 1034.34 354.83 1020.16 354.83"/><line class="cls-59" x1="1009.28" y1="334.1" x2="1135.86" y2="334.1"/><line class="cls-59" x1="1009.29" y1="369.69" x2="1135.87" y2="369.69"/><line class="cls-59" x1="1007.88" y1="377.66" x2="1134.46" y2="377.66"/><text class="cls-60" transform="translate(1007.87 377.64)">IIIIIIIIIIIIIIIIIIIIIIIIIIIIIIIIIIIIIIIIIIIIIIIIIIII</text><text class="cls-60" transform="translate(1008.3 342.2)">IIIIIIIIIIIIIIIIIIIIIIIIIIIIIIIIIIIIIIIIIIIIIIIIIIII</text><line class="cls-59" x1="1009.45" y1="342.03" x2="1136.02" y2="342.03"/><polygon class="cls-29" points="1089.89 311.02 1092.04 315.76 1090.97 372.84 1088.6 374.35 1088.6 378.01 1100.66 378.01 1100.66 373.91 1098.08 371.98 1099.58 315.76 1101.95 311.02 1089.89 311.02"/><polygon class="cls-29" points="1045.68 311.46 1047.84 316.2 1046.76 373.28 1041.81 374.14 1041.27 378.44 1056.45 378.44 1056.45 374.35 1053.87 372.41 1055.38 316.2 1057.74 311.46 1045.68 311.46"/><rect class="cls-61" x="1144.11" y="352.02" width="83.68" height="27.49"/><rect class="cls-57" x="1156.5" y="359.11" width="4.42" height="10.34"/><rect class="cls-57" x="1171.46" y="359.44" width="4.31" height="10.34"/><rect class="cls-52" x="1161.35" y="360.1" width="10.05" height="9.33"/><polyline class="cls-53" points="1165.05 360.1 1165.05 364.3 1165.05 369.43"/><polyline class="cls-53" points="1167.81 360.1 1167.81 363.62 1167.81 369.43"/><line class="cls-54" x1="1161.35" y1="363.19" x2="1171.4" y2="363.19"/><line class="cls-54" x1="1161.35" y1="366.45" x2="1171.4" y2="366.45"/><polygon class="cls-29" points="1159.2 356.04 1160.82 359.6 1172.01 359.44 1173.38 356.04 1159.2 356.04"/><rect class="cls-57" x="1189.34" y="359.39" width="4.42" height="10.34"/><rect class="cls-57" x="1204.3" y="359.71" width="4.31" height="10.34"/><rect class="cls-52" x="1194.19" y="360.38" width="10.05" height="9.33"/><polyline class="cls-53" points="1197.88 360.38 1197.88 364.58 1197.88 369.71"/><polyline class="cls-53" points="1200.65 360.38 1200.65 363.89 1200.65 369.71"/><line class="cls-54" x1="1194.19" y1="363.46" x2="1204.24" y2="363.46"/><line class="cls-54" x1="1194.19" y1="366.73" x2="1204.24" y2="366.73"/><polygon class="cls-29" points="1192.03 356.32 1193.66 359.87 1204.84 359.71 1206.21 356.32 1192.03 356.32"/><rect class="cls-61" x="1144.11" y="323.95" width="83.68" height="18.5"/><rect class="cls-52" x="1157.9" y="326.26" width="10.05" height="9.33"/><polyline class="cls-53" points="1161.6 326.26 1161.6 330.46 1161.6 335.59"/><polyline class="cls-53" points="1164.36 326.26 1164.36 329.77 1164.36 335.59"/><line class="cls-54" x1="1157.9" y1="329.34" x2="1167.95" y2="329.34"/><line class="cls-54" x1="1157.9" y1="332.61" x2="1167.95" y2="332.61"/><rect class="cls-52" x="1198.77" y="325.79" width="10.05" height="9.33"/><polyline class="cls-53" points="1202.46 325.79 1202.46 329.99 1202.46 335.12"/><polyline class="cls-53" points="1205.23 325.79 1205.23 329.31 1205.23 335.12"/><line class="cls-54" x1="1198.77" y1="328.87" x2="1208.82" y2="328.87"/><line class="cls-54" x1="1198.77" y1="332.14" x2="1208.82" y2="332.14"/><rect class="cls-61" x="919.91" y="322.1" width="83.68" height="18.5"/><rect class="cls-52" x="955.25" y="323.94" width="10.05" height="9.33"/><polyline class="cls-53" points="958.95 323.94 958.95 328.14 958.95 333.27"/><polyline class="cls-53" points="961.72 323.94 961.72 327.46 961.72 333.27"/><line class="cls-54" x1="955.25" y1="327.03" x2="965.31" y2="327.03"/><line class="cls-54" x1="955.25" y1="330.3" x2="965.31" y2="330.3"/><rect class="cls-52" x="983.19" y="323.94" width="10.05" height="9.33"/><polyline class="cls-53" points="986.88 323.94 986.88 328.14 986.88 333.27"/><polyline class="cls-53" points="989.65 323.94 989.65 327.46 989.65 333.27"/><line class="cls-54" x1="983.19" y1="327.03" x2="993.24" y2="327.03"/><line class="cls-54" x1="983.19" y1="330.3" x2="993.24" y2="330.3"/><rect class="cls-52" x="927.4" y="323.94" width="10.05" height="9.33"/><polyline class="cls-53" points="931.1 323.94 931.1 328.14 931.1 333.27"/><polyline class="cls-53" points="933.86 323.94 933.86 327.46 933.86 333.27"/><line class="cls-54" x1="927.4" y1="327.03" x2="937.45" y2="327.03"/><line class="cls-54" x1="927.4" y1="330.3" x2="937.45" y2="330.3"/><line class="cls-50" x1="1141.95" y1="337.46" x2="1229.23" y2="337.46"/><polygon class="cls-50" points="1229.37 343.24 1222.04 343.24 1142.08 343.24 1145.05 352.33 1225.2 351.76 1229.37 343.24"/><text class="cls-62" transform="translate(918.79 340.79)">IIIIIIIIIIIIIIIIIIIIIIIIIIIIIIIIIIIIIIIIIIIII</text><line class="cls-54" x1="918.72" y1="335.11" x2="1005.14" y2="335.11"/><line class="cls-54" x1="918.86" y1="341.39" x2="1005.28" y2="341.39"/><rect class="cls-61" x="914.36" y="351.15" width="83.68" height="27.51"/><text class="cls-62" transform="translate(913.24 378.46)">IIIIIIIIIIIIIIIIIIIIIIIIIIIIIIIIIIIIIIIIIIIII</text><line class="cls-54" x1="913.17" y1="372.77" x2="999.59" y2="372.77"/><line class="cls-54" x1="913.3" y1="379.06" x2="999.73" y2="379.06"/><rect class="cls-57" x="930.08" y="361.45" width="4.42" height="10.34"/><rect class="cls-57" x="945.04" y="361.77" width="4.31" height="10.34"/><rect class="cls-52" x="934.93" y="362.43" width="10.05" height="9.33"/><polyline class="cls-53" points="938.63 362.43 938.63 366.63 938.63 371.76"/><polyline class="cls-53" points="941.39 362.43 941.39 365.95 941.39 371.76"/><line class="cls-54" x1="934.93" y1="365.52" x2="944.98" y2="365.52"/><line class="cls-54" x1="934.93" y1="368.79" x2="944.98" y2="368.79"/><polygon class="cls-29" points="932.78 358.38 934.4 361.93 945.59 361.77 946.96 358.38 932.78 358.38"/><rect class="cls-57" x="966.06" y="361.29" width="4.42" height="10.34"/><rect class="cls-57" x="981.02" y="361.61" width="4.31" height="10.34"/><rect class="cls-52" x="970.91" y="362.28" width="10.05" height="9.33"/><polyline class="cls-53" points="974.6 362.28 974.6 366.48 974.6 371.61"/><polyline class="cls-53" points="977.37 362.28 977.37 365.8 977.37 371.61"/><line class="cls-54" x1="970.91" y1="365.37" x2="980.96" y2="365.37"/><line class="cls-54" x1="970.91" y1="368.63" x2="980.96" y2="368.63"/><polygon class="cls-29" points="968.75 358.22 970.38 361.78 981.56 361.61 982.93 358.22 968.75 358.22"/><polygon class="cls-29" points="989.07 351.32 989.99 353.32 989.53 377.44 988.53 378.08 988.53 379.63 993.63 379.63 993.63 377.9 992.53 377.08 993.17 353.32 994.17 351.32 989.07 351.32"/><polygon class="cls-29" points="995.64 351.32 996.55 353.32 996.09 377.44 995.09 378.08 995.09 379.63 1000.19 379.63 1000.19 377.9 999.1 377.08 999.73 353.32 1000.73 351.32 995.64 351.32"/><polygon class="cls-29" points="951.59 351.32 952.5 353.32 952.04 377.44 951.04 378.08 951.04 379.63 956.14 379.63 956.14 377.9 955.05 377.08 955.69 353.32 956.69 351.32 951.59 351.32"/><polygon class="cls-29" points="958.15 351.32 959.06 353.32 958.61 377.44 957.61 378.08 957.61 379.63 962.7 379.63 962.7 377.9 961.61 377.08 962.25 353.32 963.25 351.32 958.15 351.32"/><polygon class="cls-29" points="917.71 351.16 918.62 353.16 918.16 377.28 917.16 377.92 917.16 379.47 922.26 379.47 922.26 377.74 921.16 376.92 921.8 353.16 922.8 351.16 917.71 351.16"/><polygon class="cls-29" points="924.27 351.16 925.18 353.16 924.72 377.28 923.72 377.92 923.72 379.47 928.82 379.47 928.82 377.74 927.73 376.92 928.36 353.16 929.37 351.16 924.27 351.16"/><polygon class="cls-29" points="1178.31 352.02 1179.22 354.02 1178.76 378.14 1177.76 378.78 1177.76 380.33 1182.86 380.33 1182.86 378.6 1181.76 377.78 1182.4 354.02 1183.4 352.02 1178.31 352.02"/><polygon class="cls-29" points="1184.87 352.02 1185.78 354.02 1185.32 378.14 1184.32 378.78 1184.32 380.33 1189.42 380.33 1189.42 378.6 1188.33 377.78 1188.96 354.02 1189.96 352.02 1184.87 352.02"/><polygon class="cls-29" points="1146.26 352.02 1147.17 354.02 1146.71 378.14 1145.71 378.78 1145.71 380.33 1150.81 380.33 1150.81 378.6 1149.72 377.78 1150.36 354.02 1151.36 352.02 1146.26 352.02"/><polygon class="cls-29" points="1152.82 352.02 1153.73 354.02 1153.28 378.14 1152.28 378.78 1152.28 380.33 1157.37 380.33 1157.37 378.6 1156.28 377.78 1156.92 354.02 1157.92 352.02 1152.82 352.02"/><polygon class="cls-29" points="1210.83 352.02 1211.74 354.02 1211.28 378.14 1210.28 378.78 1210.28 380.33 1215.38 380.33 1215.38 378.6 1214.29 377.78 1214.92 354.02 1215.92 352.02 1210.83 352.02"/><polygon class="cls-29" points="1217.39 352.02 1218.3 354.02 1217.85 378.14 1216.84 378.78 1216.84 380.33 1221.94 380.33 1221.94 378.6 1220.85 377.78 1221.49 354.02 1222.49 352.02 1217.39 352.02"/><line class="cls-50" x1="909.78" y1="336.11" x2="1004.24" y2="336.11"/><polygon class="cls-50" points="1004.39 341.88 996.45 341.88 909.92 341.88 913.14 350.98 999.88 350.41 1004.39 341.88"/><text class="cls-62" transform="translate(1142.63 343.12)">IIIIIIIIIIIIIIIIIIIIIIIIIIIIIIIIIIIIIIIIIIIII</text><line class="cls-54" x1="1142.56" y1="337.44" x2="1228.99" y2="337.44"/><line class="cls-54" x1="1142.7" y1="343.72" x2="1229.12" y2="343.72"/><polygon class="cls-50" points="917.16 310.62 919.95 322.1 1004.78 322.1 1001.81 311.52 917.16 310.62"/><polygon class="cls-50" points="1139.59 313.21 1142.38 323.4 1227.22 323.4 1224.24 314.01 1139.59 313.21"/><polygon class="cls-29" points="1133.78 311.08 1135.93 315.96 1134.85 374.64 1132.48 376.19 1132.48 379.95 1144.55 379.95 1144.55 375.74 1141.96 373.75 1143.47 315.96 1145.84 311.08 1133.78 311.08"/><polygon class="cls-63" points="1143.33 314.81 1235.04 314.41 1145.77 306.44 1143.33 314.81"/><polygon class="cls-63" points="999.91 311.7 908.21 311.3 997.48 303.33 999.91 311.7"/><polygon class="cls-29" points="994.98 299.53 1000.41 311.35 1144.67 311.35 1152.28 298.39 994.98 299.53"/><rect class="cls-56" x="1153.52" y="380.33" width="66.77" height="36.05"/><path class="cls-63" d="M1151,380.88l76.16-.81v36.58H1209c6.57-35.32-9.63-29.06-9.63-29.06-8.52,1.38-5,29.06-5,29.06h-17.91c-.1-39.06-13.39-29.06-13.39-29.06-7.18,1.67-5.17,28.2-5.17,28.2l-8.39.86V380.88"/><text class="cls-62" transform="translate(1142.84 379.68)">IIIIIIIIIIIIIIIIIIIIIIIIIIIIIIIIIIIIIIIIIIIII</text><line class="cls-54" x1="1142.77" y1="373.99" x2="1229.19" y2="373.99"/><line class="cls-54" x1="1142.9" y1="380.28" x2="1229.32" y2="380.28"/><rect class="cls-50" x="1139.15" y="379.52" width="10.36" height="42.46"/><rect class="cls-56" x="921.24" y="380.33" width="66.77" height="36.05"/><path class="cls-63" d="M918.69,380.88l76.16-.81v36.58H976.69c6.57-35.32-9.63-29.06-9.63-29.06-8.52,1.38-5,29.06-5,29.06H944.17c-.1-39.06-13.39-29.06-13.39-29.06-7.18,1.67-5.17,28.2-5.17,28.2l-8.39.86V380.88"/><polygon class="cls-29" points="1000.2 311.57 1002.74 316.15 1000.2 373.03 994.77 374.12 994.77 379.56 1008.98 379.35 1008.98 376.08 1008.71 372.26 1009.63 317.13 1011.57 311.57 1000.2 311.57"/><path class="cls-64" d="M1063.13,292.95s1.41-7.11,6.09-7.75c0,0,9.56-3.88,13.91,7.75Z"/><path class="cls-24" d="M982.86,426.09c-3.4-3-2.18-18-2.18-18l15.73-30.49s8.53,25.95,8,34.88c-.21,3.61-4.83,13.64-4.83,13.64S986,428.87,982.86,426.09Z"/><path class="cls-24" d="M1156.7,425.43c3.4-3,2.18-18,2.18-18l-15.73-30.49s-8.53,25.95-8,34.88c.21,3.61,4.83,13.64,4.83,13.64S1153.57,428.21,1156.7,425.43Z"/><path class="cls-8" d="M1210.79,407.92c-2.95.21-7.43,9.18-7.43,9.18l7.43,4.52,7.43-6.85S1213.31,407.74,1210.79,407.92Z"/><path class="cls-25" d="M1223.71,409.66c-2.85-.76-10,6.24-10,6.24l5.54,6.7,9.26-4S1226.15,410.31,1223.71,409.66Z"/><path class="cls-8" d="M1179.43,407.08c-2.95.21-7.43,9.18-7.43,9.18l7.43,4.52,7.43-6.85S1182,406.9,1179.43,407.08Z"/><path class="cls-25" d="M1192.36,408.82c-2.85-.76-10,6.24-10,6.24l5.54,6.7,9.26-4S1194.8,409.47,1192.36,408.82Z"/><path class="cls-8" d="M949.17,406.15c-2.95.21-7.43,9.18-7.43,9.18l7.43,4.52L956.6,413S951.69,406,949.17,406.15Z"/><path class="cls-25" d="M962.09,407.89c-2.85-.76-10,6.24-10,6.24l5.54,6.7,9.26-4S964.54,408.54,962.09,407.89Z"/></g></g></svg>